HIERARCHY
ROOT Hips
{
	OFFSET -148.214600 91.510246 -151.741394
	CHANNELS 6 Xposition Yposition Zposition Zrotation Yrotation Xrotation 
	JOINT LeftUpLeg
	{
		OFFSET 0.103461 1.857822 10.548510
		CHANNELS 3 Xrotation Yrotation Zrotation
		JOINT LeftLeg
		{
			OFFSET 43.500000 -0.000019 0.000002
			CHANNELS 3 Xrotation Yrotation Zrotation
			JOINT LeftFoot
			{
				OFFSET 42.372192 0.000011 -0.000003
				CHANNELS 3 Xrotation Yrotation Zrotation
				JOINT LeftToe
				{
					OFFSET 17.299999 -0.000000 0.000010
					CHANNELS 3 Xrotation Yrotation Zrotation
					End Site
					{
						OFFSET 0.000000 0.000000 0.000000
					}
				}
			}
		}
	}
	JOINT RightUpLeg
	{
		OFFSET 0.103455 1.857820 -10.548494
		CHANNELS 3 Xrotation Yrotation Zrotation
		JOINT RightLeg
		{
			OFFSET 43.500046 -0.000011 0.000019
			CHANNELS 3 Xrotation Yrotation Zrotation
			JOINT RightFoot
			{
				OFFSET 42.372261 -0.000008 0.000011
				CHANNELS 3 Xrotation Yrotation Zrotation
				JOINT RightToe
				{
					OFFSET 17.299988 -0.000007 0.000010
					CHANNELS 3 Xrotation Yrotation Zrotation
					End Site
					{
						OFFSET 0.000000 0.000000 0.000000
					}
				}
			}
		}
	}
	JOINT Spine
	{
		OFFSET 6.901968 -2.603730 0.000000
		CHANNELS 3 Xrotation Yrotation Zrotation
		JOINT Spine1
		{
			OFFSET 12.588100 -0.000004 0.000000
			CHANNELS 3 Xrotation Yrotation Zrotation
			JOINT Spine2
			{
				OFFSET 12.343204 0.000010 -0.000008
				CHANNELS 3 Xrotation Yrotation Zrotation
				JOINT Neck
				{
					OFFSET 25.832897 0.000000 -0.000001
					CHANNELS 3 Xrotation Yrotation Zrotation
					JOINT Head
					{
						OFFSET 11.766605 0.000003 0.000004
						CHANNELS 3 Xrotation Yrotation Zrotation
						End Site
						{
							OFFSET 0.000000 0.000000 0.000000
						}
					}
				}
				JOINT LeftShoulder
				{
					OFFSET 19.745903 -1.480373 6.000118
					CHANNELS 3 Xrotation Yrotation Zrotation
					JOINT LeftArm
					{
						OFFSET 11.284121 -0.000002 -0.000023
						CHANNELS 3 Xrotation Yrotation Zrotation
						JOINT LeftForeArm
						{
							OFFSET 33.000046 -0.000008 0.000023
							CHANNELS 3 Xrotation Yrotation Zrotation
							JOINT LeftHand
							{
								OFFSET 25.200012 0.000016 0.000008
								CHANNELS 3 Xrotation Yrotation Zrotation
								End Site
								{
									OFFSET 0.000000 0.000000 0.000000
								}
							}
						}
					}
				}
				JOINT RightShoulder
				{
					OFFSET 19.746101 -1.480373 -6.000067
					CHANNELS 3 Xrotation Yrotation Zrotation
					JOINT RightArm
					{
						OFFSET 11.284146 -0.000018 -0.000007
						CHANNELS 3 Xrotation Yrotation Zrotation
						JOINT RightForeArm
						{
							OFFSET 33.000080 0.000028 0.000017
							CHANNELS 3 Xrotation Yrotation Zrotation
							JOINT RightHand
							{
								OFFSET 25.199787 0.000143 0.000415
								CHANNELS 3 Xrotation Yrotation Zrotation
								End Site
								{
									OFFSET 0.000000 0.000000 0.000000
								}
							}
						}
					}
				}
			}
		}
	}
}
MOTION
Frames: 12
Frame Time: 0.033333
-181.892502 90.949722 105.514000 82.540958 2.654851 -33.621401 -179.420436 11.177093 -177.133320 -16.735627 -3.249543 -7.628872 81.833589 5.989298 2.609502 21.454560 0.003107 0.000017 155.131669 7.234890 179.987943 -95.595205 -7.094628 4.717866 89.387089 -2.377976 3.511563 21.454553 -0.003086 -0.000001 10.225534 -1.842845 1.005272 10.413502 -3.768558 1.841407 10.094832 -3.757506 1.864143 -10.044025 -10.982438 -12.142852 -11.843902 8.993728 -18.756772 144.449963 -70.051568 35.317020 0.518314 58.172079 0.343834 -73.208665 -11.076251 2.388527 1.078297 -13.701714 27.466791 165.534170 75.830270 -13.391113 -8.667335 -56.341513 -48.641800 -23.950089 11.346948 -0.892229 13.105584 5.801407 -0.727664 
-183.673401 91.263138 104.328300 83.832656 1.747886 -34.090089 -178.890113 9.942096 -177.361025 -17.186969 -3.033675 -7.949413 82.182626 6.165975 2.546145 21.454558 0.003109 0.000017 150.412882 4.094892 179.109253 -92.879733 -6.962204 3.967011 89.569181 -1.816892 3.946574 21.454553 -0.003090 0.000001 10.048509 -1.396165 0.393453 10.079046 -2.821179 0.663925 9.760545 -2.817255 0.680952 -10.877104 -10.078040 -11.621977 -12.344706 8.585987 -17.897754 143.661008 -70.012724 36.125946 2.349629 58.427617 -3.991784 -78.638857 -8.626050 2.449517 -0.333328 -15.148303 26.621765 170.897945 76.171526 -7.897956 -3.548102 -53.961380 -50.951196 -25.754941 11.904962 -0.955810 12.488326 5.793344 -1.419005 
-185.512802 91.359047 103.140602 84.555358 1.121908 -34.580807 -178.444812 9.201906 -178.709864 -18.549056 -2.650416 -7.598941 82.709739 5.890584 2.572793 21.454558 0.003106 0.000018 147.335049 2.079300 179.128650 -86.096898 -6.937054 4.221978 89.105897 -1.875824 4.736221 21.454553 -0.003089 0.000001 10.003098 -1.061741 -0.203183 9.999604 -2.101858 -0.497456 9.681293 -2.104957 -0.484758 -11.795639 -8.611549 -11.450419 -12.814796 8.230223 -17.166362 143.610970 -70.127588 36.168942 2.727288 58.144130 -9.702825 -84.028191 -5.513338 2.467477 -0.203388 -16.036248 23.842116 176.605934 76.353387 -2.060081 -0.310045 -51.581544 -49.769072 -27.551317 12.318320 -1.012377 13.136306 5.901216 -1.003287 
-187.545593 91.106987 101.975700 84.677195 1.126885 -35.248595 -178.124517 9.248704 -179.621230 -20.607162 -2.722936 -7.507655 83.546949 5.785204 2.542263 21.454560 0.003109 0.000018 146.200568 1.413895 179.803296 -75.577047 -6.821220 4.182374 90.152842 -2.004705 4.200795 21.454550 -0.003096 -0.000002 9.988218 -0.953300 -0.672155 9.976351 -1.845013 -1.424157 9.658188 -1.853707 -1.412999 -12.502771 -6.690568 -11.794349 -12.613362 7.661882 -16.589121 141.971014 -70.805593 37.791963 1.359751 57.573051 -15.886475 -88.320527 -2.603911 2.454199 -0.494701 -17.087409 22.006340 -179.727043 75.924608 1.680173 2.330134 -49.434922 -47.467899 -28.333469 12.938651 -1.066152 14.047169 6.350064 1.781804 
-189.873795 90.653160 100.773697 84.630238 1.476563 -36.234102 -177.265648 9.668104 179.666282 -21.878643 -3.046777 -7.443485 84.626966 5.700300 2.493457 21.454557 0.003107 0.000017 146.867372 1.685895 -178.246600 -61.317525 -6.670030 3.476777 89.866609 -1.357364 5.466886 21.454548 -0.003093 -0.000001 9.901967 -0.945816 -0.972213 9.808278 -1.805742 -2.021327 9.490219 -1.818042 -2.010394 -12.289051 -4.882922 -12.366868 -13.195385 7.306916 -16.390236 139.849995 -71.497129 39.900025 -1.296189 55.687471 -20.636378 -91.420204 -1.403956 2.508541 -0.386739 -17.547608 21.132470 -177.286125 75.510986 4.170907 4.959826 -48.126155 -45.263127 -28.814038 14.008911 -1.143709 13.973922 8.122365 3.209311 
-192.461899 90.131653 99.561447 84.593621 2.033064 -36.949490 -175.605229 10.379902 -179.807066 -21.708783 -3.417515 -7.462539 85.769452 5.662272 2.350717 21.454558 0.003107 0.000017 149.158709 2.811402 -175.527269 -43.922375 -4.318785 1.216450 88.050209 -0.042745 4.162057 21.454550 -0.003091 -0.000000 9.722592 -0.966661 -1.232835 9.453854 -1.829314 -2.540786 9.135921 -1.844758 -2.529708 -11.653590 -3.617995 -13.021761 -14.065730 6.747286 -16.442222 138.319950 -72.177327 41.404050 -4.201634 52.661257 -23.819520 -93.424974 -1.075697 2.575309 -0.017186 -17.603838 20.422202 -174.712919 75.529448 6.806134 6.882587 -48.207588 -43.386987 -28.132574 14.930081 -1.190375 14.733075 10.743298 4.169744 
-195.252594 89.323357 98.139107 84.125821 2.853571 -37.180514 -173.392453 11.519803 -179.154673 -21.391224 -3.618757 -7.276578 87.383022 5.454216 2.066749 21.454562 0.003109 0.000017 153.215090 4.401504 -170.048337 -25.953781 -1.650510 -3.419397 85.780045 3.813758 7.366522 21.454555 -0.003090 -0.000000 9.503216 -1.099539 -1.482260 9.022773 -2.080142 -3.046167 8.704943 -2.098627 -3.033575 -11.373232 -2.625760 -13.844009 -13.813375 5.758470 -16.523529 136.540959 -72.927070 43.151995 -6.825276 48.864734 -25.246164 -93.886230 -1.005992 2.591099 -0.303295 -17.986825 19.639475 -172.487794 75.050009 9.081052 9.122279 -48.471646 -41.464173 -27.255308 15.326922 -1.200239 14.042361 13.292731 5.888246 
-197.721207 88.913834 96.731956 83.887236 3.021199 -37.024202 -170.508446 11.654298 -177.564947 -19.707548 -4.244388 -7.319209 88.015402 5.456034 1.848111 21.454562 0.003110 0.000019 157.164893 5.231908 -166.099928 -12.730551 2.659027 -5.672794 80.691124 5.974877 8.484621 21.454551 -0.003096 -0.000001 9.363982 -1.124360 -1.596353 8.747020 -2.124850 -3.273594 8.429272 -2.144712 -3.260738 -11.103558 -2.089779 -14.810331 -13.104455 5.387567 -17.094336 134.067051 -73.106622 45.647964 -9.556014 44.288200 -25.702589 -92.682996 -1.261418 2.555064 -0.408330 -17.563212 20.618152 -170.251003 74.322956 11.370099 11.514072 -49.102028 -39.461039 -27.626121 15.420079 -1.212682 13.546248 14.690842 5.906596 
-199.740402 88.506073 95.493584 84.162008 3.107655 -37.538306 -169.261322 11.562199 -177.780754 -19.801705 -4.395488 -6.948578 88.706672 5.141916 1.475476 21.454565 0.003114 0.000019 157.927552 4.958204 -164.389908 -12.261605 2.851576 -6.082232 78.712719 6.906067 10.199698 21.454553 -0.003097 -0.000002 9.172584 -1.082989 -1.516991 8.361591 -2.053580 -3.108674 8.043778 -2.072444 -3.096226 -10.587291 -2.154733 -15.564333 -13.413375 5.662954 -17.983540 132.162958 -73.775332 47.522001 -13.331285 40.463499 -25.525628 -89.652189 -2.039070 2.474007 -0.073048 -16.558865 20.791045 -169.794910 73.942672 11.836933 13.142711 -50.038519 -38.819923 -27.533316 15.350551 -1.206604 13.103353 15.255291 7.803501 
-201.796005 88.301918 93.953667 84.838954 1.881716 -38.677186 -167.932550 10.278905 -178.985927 -20.662849 -4.496744 -6.653673 88.916113 4.883354 1.029375 21.454562 0.003108 0.000018 158.197713 2.975797 -163.540438 -14.618888 1.703182 -6.018530 74.098127 6.448311 7.180191 21.454551 -0.003086 -0.000001 9.120657 -0.778103 -1.307881 8.246178 -1.461069 -2.668017 7.928330 -1.477284 -2.659147 -10.837180 -1.658116 -16.164216 -13.336703 5.589618 -18.354166 130.597083 -74.386955 49.055064 -16.446845 37.641306 -22.542223 -85.447080 -4.740363 2.476067 0.617686 -15.473312 21.517551 -169.523916 72.524479 12.110843 11.989845 -49.809868 -36.991919 -27.241711 14.676372 -1.158434 11.870908 14.989282 7.858739 
-204.031906 88.395866 92.060181 85.540285 0.514295 -38.574890 -167.010324 8.434496 179.279256 -22.888208 -4.241301 -5.565648 87.737304 4.036021 0.225712 21.454558 0.003112 0.000017 159.589870 0.840395 -165.255908 -14.977241 2.033562 -4.702171 69.603091 3.180581 -0.355799 21.454551 -0.003088 -0.000000 8.996209 -0.301004 -1.578292 7.986482 -0.492453 -3.173557 7.668919 -0.511742 -3.170537 -10.171933 -1.546698 -16.247753 -13.819149 4.881030 -18.218756 130.364023 -73.757594 49.345986 -16.406896 36.581557 -19.121637 -81.448182 -7.148317 2.468472 1.961981 -12.741921 23.142972 -170.027847 71.873363 11.589835 10.069326 -50.248554 -34.811835 -27.402975 14.762127 -1.166717 9.955778 15.190465 4.766604 
-206.247299 88.671402 90.034019 86.331269 -0.745476 -37.850893 -167.323966 6.453596 177.193863 -26.760801 -3.515863 -4.308030 84.473983 3.220848 0.388299 21.454557 0.003109 0.000016 160.798581 -1.266096 -165.781778 -16.259930 1.342369 -4.146280 70.004439 1.180121 -5.003389 21.454551 -0.003089 -0.000001 8.818546 0.211441 -2.121016 7.613974 0.561778 -4.223549 7.296834 0.536136 -4.226859 -10.063392 -1.235476 -16.024531 -13.122130 3.584295 -17.413320 125.468977 -73.960041 54.279066 -15.352819 39.076281 -15.122152 -76.992208 -9.582226 2.445251 3.771171 -11.948040 24.909391 -169.815920 71.630243 11.808111 7.273104 -51.188067 -32.617633 -28.976214 15.722662 -1.256537 9.090125 15.809538 3.463383 
